# xmcd CD database file
#
# Track frame offsets:
#	150
#	22670
#	41241
#	64294
#	85843
#	109001
#	129599
#	142980
#	172403
#	191606
#	210086
#
# Disc length: 3090 seconds
#
# Revision: 0
# Processed by: cddbd v1.5.2PL0 Copyright (c) Steve Scherf et al.
# Submitted via: CDex 1.51
#
DISCID=950c100b
DTITLE=Marcus Malone - One More Time
DYEAR=1999
DGENRE=Blues
TTITLE0=One More Time
TTITLE1=Dirty Shame
TTITLE2=Redline Blues Effect
TTITLE3=Testify
TTITLE4=Drowning Man
TTITLE5=Pride and Joy
TTITLE6=Tell Me Why
TTITLE7=Ball and Chain
TTITLE8=Heart For Rent
TTITLE9=Yesterday Man
TTITLE10=Redline Cause
EXTD=YEAR: 1999
EXTT0=
EXTT1=
EXTT2=
EXTT3=
EXTT4=
EXTT5=
EXTT6=
EXTT7=
EXTT8=
EXTT9=
EXTT10=
PLAYORDER=
